<?xml version="1.0" encoding="UTF-8" standalone="no"?><!DOCTYPE svg PUBLIC "-//W3C//DTD SVG 1.1//EN" "http://www.w3.org/Graphics/SVG/1.1/DTD/svg11.dtd"><svg width="100%" height="100%" viewBox="0 0 1000 1000" version="1.1" xmlns="http://www.w3.org/2000/svg" xmlns:xlink="http://www.w3.org/1999/xlink" xml:space="preserve" xmlns:serif="http://www.serif.com/" style="fill-rule:evenodd;clip-rule:evenodd;stroke-linecap:round;stroke-linejoin:round;stroke-miterlimit:1.5;"><rect id="Bumpel-2" serif:id="Bumpel 2" x="0" y="0" width="1000" height="1000" style="fill:none;"/><g id="Vogel-2" serif:id="Vogel 2"><circle cx="172.47" cy="568.779" r="3.582" style="stroke:#000;stroke-width:12.5px;"/><path id="Koerper" d="M474.101,537.719l-319.921,60.546c0,0 -126.308,-298.436 172.504,-408.661c335.807,-123.872 480.062,55.308 518.944,208.953c22.11,87.367 86.596,320.975 -125.116,395.501c-208.546,73.411 -277.445,4.415 -329.825,-42.957c-71.218,-64.41 -81.27,-136.585 -82.517,-181.979" style="fill:none;stroke:#000;stroke-width:12.5px;"/><g id="Fuesse"><path d="M487.908,815.074l-47.66,86.501l-62.036,-15.704" style="fill:none;stroke:#000;stroke-width:12.5px;"/><path d="M734.082,792.607l54.707,57.856l-50.925,37.978" style="fill:none;stroke:#000;stroke-width:12.5px;"/></g><g id="Augen"><circle cx="565.455" cy="392.968" r="140.485" style="fill:none;stroke:#000;stroke-width:12.5px;"/><circle cx="323.886" cy="468.982" r="86.32" style="fill:none;stroke:#000;stroke-width:12.5px;"/><circle cx="481.441" cy="446.708" r="36.645" style="stroke:#000;stroke-width:12.5px;"/><circle cx="387.671" cy="487.246" r="20.86" style="stroke:#000;stroke-width:12.5px;"/></g><g id="Haare"><path d="M682.45,181.8c0,0 90.39,-37.963 86.242,-83.375" style="fill:none;stroke:#000;stroke-width:12.5px;"/><path d="M742.598,222.71c0,0 88.587,-22.808 101.934,-98.565" style="fill:none;stroke:#000;stroke-width:12.5px;"/></g></g></svg>