<?xml version="1.0" encoding="UTF-8" standalone="no"?><!DOCTYPE svg PUBLIC "-//W3C//DTD SVG 1.1//EN" "http://www.w3.org/Graphics/SVG/1.1/DTD/svg11.dtd"><svg width="100%" height="100%" viewBox="0 0 999 1000" version="1.1" xmlns="http://www.w3.org/2000/svg" xmlns:xlink="http://www.w3.org/1999/xlink" xml:space="preserve" xmlns:serif="http://www.serif.com/" style="fill-rule:evenodd;clip-rule:evenodd;stroke-linecap:round;stroke-linejoin:round;stroke-miterlimit:1.5;"><rect id="Bumpel-1" serif:id="Bumpel 1" x="0" y="0" width="1000" height="1000" style="fill:none;"/><g id="Vogel-1" serif:id="Vogel 1"><circle cx="127.813" cy="583.844" r="3.582" style="stroke:#000;stroke-width:12.5px;"/><path id="Koerper" d="M475.503,539.592l-374.506,75.784c0,0 -53.205,-384.879 324.39,-454.762c377.595,-69.882 453.517,202.606 465.516,262.403c11.999,59.798 62.817,315.907 -240.446,378.886c-303.263,62.978 -373.398,-141.903 -387.086,-219.385" style="fill:none;stroke:#000;stroke-width:12.5px;"/><g id="Haare"><path d="M715.43,182.099c0,0 61.826,-28.493 67.278,-66.39" style="fill:none;stroke:#000;stroke-width:12.5px;"/><path d="M808.526,244.115c0,0 61.826,-28.493 67.278,-66.39" style="fill:none;stroke:#000;stroke-width:12.5px;"/></g><g id="Fuesse"><path d="M514.541,813.406l-11.468,70.885l-71.623,-8.183" style="fill:none;stroke:#000;stroke-width:12.5px;"/><path d="M732.972,784.176l32.101,63.509l-68.834,28.377" style="fill:none;stroke:#000;stroke-width:12.5px;"/></g><g id="Augen"><circle cx="521.895" cy="496.946" r="31.939" style="stroke:#000;stroke-width:12.5px;"/><circle cx="415.77" cy="467.715" r="30.049" style="stroke:#000;stroke-width:12.5px;"/><circle cx="614.427" cy="452.835" r="134.59" style="fill:none;stroke:#000;stroke-width:12.5px;"/><ellipse cx="372.7" cy="452.835" rx="80.592" ry="81.043" style="fill:none;stroke:#000;stroke-width:12.5px;"/></g></g></svg>