<?xml version="1.0" encoding="UTF-8" standalone="no"?><!DOCTYPE svg PUBLIC "-//W3C//DTD SVG 1.1//EN" "http://www.w3.org/Graphics/SVG/1.1/DTD/svg11.dtd"><svg width="100%" height="100%" viewBox="0 0 1000 1000" version="1.1" xmlns="http://www.w3.org/2000/svg" xmlns:xlink="http://www.w3.org/1999/xlink" xml:space="preserve" xmlns:serif="http://www.serif.com/" style="fill-rule:evenodd;clip-rule:evenodd;stroke-linecap:round;stroke-linejoin:round;stroke-miterlimit:1.5;"><rect id="Bumpel-3" serif:id="Bumpel 3" x="0" y="0" width="1000" height="1000" style="fill:none;"/><g id="Vogel-3" serif:id="Vogel 3"><circle cx="115.128" cy="481.418" r="3.791" style="stroke:#000;stroke-width:12.5px;"/><path id="Koerper" d="M476.421,515.928l-401.421,-6.331c12.337,-141.656 148.177,-457.297 517.295,-407.33c187.204,25.341 332.705,202.056 332.705,390.966c0,188.911 -153.372,342.283 -342.282,342.283c-188.911,0 -317.832,-134.014 -317.832,-322.925" style="fill:none;stroke:#000;stroke-width:12.5px;"/><g id="Fuesse"><path d="M496.491,825.441l-18.276,71.222l-79.586,-23.94" style="fill:none;stroke:#000;stroke-width:12.5px;"/><path d="M673.856,823.599l17.987,71.296l-81.349,17.01" style="fill:none;stroke:#000;stroke-width:12.5px;"/></g><g id="Haare"><path d="M815.705,221.545c0,0 60.309,-18.322 71.023,-79.912" style="fill:none;stroke:#000;stroke-width:12.5px;"/><path d="M753.142,166.639c0,0 73.321,-34.421 65.334,-78.544" style="fill:none;stroke:#000;stroke-width:12.5px;"/></g><g id="Augen"><circle cx="618.431" cy="391.839" r="146.604" style="fill:none;stroke:#000;stroke-width:12.5px;"/><circle cx="377.381" cy="391.709" r="94.073" style="fill:none;stroke:#000;stroke-width:12.5px;"/><circle cx="427.282" cy="432.536" r="31.087" style="stroke:#000;stroke-width:12.5px;"/><ellipse cx="539.553" cy="423.998" rx="56.703" ry="55.811" style="stroke:#000;stroke-width:12.5px;"/></g></g></svg>